<svg xmlns="http://www.w3.org/2000/svg" xmlns:xlink="http://www.w3.org/1999/xlink" width="500" zoomAndPan="magnify" viewBox="0 0 375 374.999991" height="500" preserveAspectRatio="xMidYMid meet" version="1.0"><defs><g/></defs><g fill="#8c52ff" fill-opacity="1"><g transform="translate(44.002934, 221.647658)"><g><path d="M 66.671875 -68.132812 L 66.671875 -69.820312 C 58.914062 -69.480469 50.59375 -69.480469 42.835938 -69.820312 L 42.835938 -68.132812 C 48.570312 -67.457031 50.707031 -66.445312 50.707031 -62.511719 L 50.707031 -36.203125 L 18.777344 -36.203125 L 18.777344 -62.511719 C 18.777344 -66.445312 20.910156 -67.457031 26.644531 -68.132812 L 26.644531 -69.820312 C 18.886719 -69.480469 10.570312 -69.480469 2.8125 -69.820312 L 2.8125 -68.132812 C 8.542969 -67.457031 10.679688 -66.445312 10.679688 -62.511719 L 10.679688 -7.308594 C 10.679688 -3.371094 8.542969 -2.359375 2.8125 -1.6875 L 2.8125 0 C 10.570312 -0.335938 18.886719 -0.335938 26.644531 0 L 26.644531 -1.6875 C 20.910156 -2.359375 18.777344 -3.371094 18.777344 -7.308594 L 18.777344 -33.617188 L 50.707031 -33.617188 L 50.707031 -7.308594 C 50.707031 -3.371094 48.570312 -2.359375 42.835938 -1.6875 L 42.835938 0 C 50.59375 -0.335938 58.914062 -0.335938 66.671875 0 L 66.671875 -1.6875 C 60.9375 -2.359375 58.800781 -3.371094 58.800781 -7.308594 L 58.800781 -62.511719 C 58.800781 -66.445312 60.9375 -67.457031 66.671875 -68.132812 Z M 66.671875 -68.132812 "/></g></g></g><g fill="#8c52ff" fill-opacity="1"><g transform="translate(106.738132, 221.647658)"><g><path d="M 70.15625 -6.519531 L 70.15625 -63.523438 C 70.15625 -66.445312 72.292969 -67.457031 77.691406 -68.132812 L 77.691406 -69.820312 C 72.855469 -69.480469 67.121094 -69.480469 62.175781 -69.820312 L 41.597656 -13.15625 L 19 -69.820312 C 13.15625 -69.480469 8.207031 -69.480469 2.472656 -69.820312 L 2.472656 -68.132812 C 8.207031 -67.457031 10.792969 -66.558594 10.792969 -63.296875 L 10.792969 -6.519531 C 10.792969 -2.699219 8.769531 -2.472656 1.6875 -1.6875 L 1.6875 0 C 8.65625 -0.335938 15.851562 -0.335938 23.046875 0 L 23.046875 -1.6875 C 16.191406 -2.472656 13.828125 -2.699219 13.828125 -6.519531 L 13.828125 -61.273438 L 38.113281 0 L 39.464844 0 L 62.175781 -61.273438 L 62.175781 -6.519531 C 62.175781 -2.699219 60.039062 -2.359375 54.191406 -1.6875 L 54.191406 0 C 61.949219 -0.335938 70.382812 -0.335938 78.027344 0 L 78.027344 -1.6875 C 72.292969 -2.359375 70.15625 -2.699219 70.15625 -6.519531 Z M 70.15625 -6.519531 "/></g></g></g><path stroke-linecap="butt" transform="matrix(0.75, 0, 0, 0.75, 169.497241, 152.307777)" fill="none" stroke-linejoin="miter" d="M -0.00152909 1.001089 L 215.331818 1.001089 " stroke="#8c52ff" stroke-width="2" stroke-opacity="1" stroke-miterlimit="4"/><path stroke-linecap="butt" transform="matrix(0.75, 0, 0, 0.75, 160.716294, 220.509595)" fill="none" stroke-linejoin="miter" d="M -0.0019336 0.997623 L 227.039748 0.997623 " stroke="#8c52ff" stroke-width="2" stroke-opacity="1" stroke-miterlimit="4"/><g fill="#8c52ff" fill-opacity="1"><g transform="translate(227.683904, 182.406564)"><g><path d="M 10.078125 -10.09375 L 10.078125 0 L 9.03125 0 L 9.03125 -4.65625 L 2.71875 -4.65625 L 2.71875 0 L 1.640625 0 L 1.640625 -10.09375 L 2.71875 -10.09375 L 2.71875 -5.59375 L 9.03125 -5.59375 L 9.03125 -10.09375 Z M 10.078125 -10.09375 "/></g></g></g><g fill="#8c52ff" fill-opacity="1"><g transform="translate(247.333466, 182.406564)"><g><path d="M 8.78125 -0.921875 L 8.78125 0 L 1.640625 0 L 1.640625 -10.09375 L 8.5625 -10.09375 L 8.5625 -9.171875 L 2.71875 -9.171875 L 2.71875 -5.578125 L 7.9375 -5.578125 L 7.9375 -4.671875 L 2.71875 -4.671875 L 2.71875 -0.921875 Z M 8.78125 -0.921875 "/></g></g></g><g fill="#8c52ff" fill-opacity="1"><g transform="translate(264.907413, 182.406564)"><g><path d="M 10.078125 -10.09375 L 10.078125 0 L 9.203125 0 L 2.71875 -8.1875 L 2.71875 0 L 1.640625 0 L 1.640625 -10.09375 L 2.53125 -10.09375 L 9.03125 -1.90625 L 9.03125 -10.09375 Z M 10.078125 -10.09375 "/></g></g></g><g fill="#8c52ff" fill-opacity="1"><g transform="translate(284.556974, 182.406564)"><g><path d="M 1.640625 -10.09375 L 5.75 -10.09375 C 6.820312 -10.09375 7.765625 -9.878906 8.578125 -9.453125 C 9.398438 -9.023438 10.035156 -8.425781 10.484375 -7.65625 C 10.929688 -6.894531 11.15625 -6.023438 11.15625 -5.046875 C 11.15625 -4.066406 10.929688 -3.191406 10.484375 -2.421875 C 10.035156 -1.660156 9.398438 -1.066406 8.578125 -0.640625 C 7.765625 -0.210938 6.820312 0 5.75 0 L 1.640625 0 Z M 5.703125 -0.921875 C 6.585938 -0.921875 7.359375 -1.09375 8.015625 -1.4375 C 8.679688 -1.789062 9.195312 -2.28125 9.5625 -2.90625 C 9.925781 -3.53125 10.109375 -4.242188 10.109375 -5.046875 C 10.109375 -5.859375 9.925781 -6.570312 9.5625 -7.1875 C 9.195312 -7.8125 8.679688 -8.296875 8.015625 -8.640625 C 7.359375 -8.992188 6.585938 -9.171875 5.703125 -9.171875 L 2.71875 -9.171875 L 2.71875 -0.921875 Z M 5.703125 -0.921875 "/></g></g></g><g fill="#8c52ff" fill-opacity="1"><g transform="translate(304.394837, 182.406564)"><g/></g></g><g fill="#8c52ff" fill-opacity="1"><g transform="translate(185.824532, 203.406563)"><g><path d="M 12.125 -10.09375 L 12.125 0 L 11.109375 0 L 11.109375 -8.078125 L 7.140625 -1.28125 L 6.640625 -1.28125 L 2.671875 -8.03125 L 2.671875 0 L 1.640625 0 L 1.640625 -10.09375 L 2.53125 -10.09375 L 6.90625 -2.609375 L 11.25 -10.09375 Z M 12.125 -10.09375 "/></g></g></g><g fill="#8c52ff" fill-opacity="1"><g transform="translate(207.520881, 203.406563)"><g><path d="M 6.0625 0.09375 C 5.0625 0.09375 4.15625 -0.128906 3.34375 -0.578125 C 2.53125 -1.023438 1.894531 -1.640625 1.4375 -2.421875 C 0.976562 -3.203125 0.75 -4.078125 0.75 -5.046875 C 0.75 -6.015625 0.976562 -6.890625 1.4375 -7.671875 C 1.894531 -8.453125 2.53125 -9.066406 3.34375 -9.515625 C 4.15625 -9.960938 5.0625 -10.1875 6.0625 -10.1875 C 7.0625 -10.1875 7.960938 -9.960938 8.765625 -9.515625 C 9.566406 -9.078125 10.195312 -8.460938 10.65625 -7.671875 C 11.113281 -6.890625 11.34375 -6.015625 11.34375 -5.046875 C 11.34375 -4.078125 11.113281 -3.195312 10.65625 -2.40625 C 10.195312 -1.625 9.566406 -1.007812 8.765625 -0.5625 C 7.960938 -0.125 7.0625 0.09375 6.0625 0.09375 Z M 6.0625 -0.859375 C 6.851562 -0.859375 7.570312 -1.039062 8.21875 -1.40625 C 8.863281 -1.769531 9.367188 -2.269531 9.734375 -2.90625 C 10.097656 -3.539062 10.28125 -4.253906 10.28125 -5.046875 C 10.28125 -5.835938 10.097656 -6.550781 9.734375 -7.1875 C 9.367188 -7.820312 8.863281 -8.320312 8.21875 -8.6875 C 7.570312 -9.050781 6.851562 -9.234375 6.0625 -9.234375 C 5.257812 -9.234375 4.53125 -9.050781 3.875 -8.6875 C 3.226562 -8.320312 2.71875 -7.820312 2.34375 -7.1875 C 1.976562 -6.550781 1.796875 -5.835938 1.796875 -5.046875 C 1.796875 -4.253906 1.976562 -3.539062 2.34375 -2.90625 C 2.71875 -2.269531 3.226562 -1.769531 3.875 -1.40625 C 4.53125 -1.039062 5.257812 -0.859375 6.0625 -0.859375 Z M 6.0625 -0.859375 "/></g></g></g><g fill="#8c52ff" fill-opacity="1"><g transform="translate(227.545214, 203.406563)"><g><path d="M 10.078125 -10.09375 L 10.078125 0 L 9.03125 0 L 9.03125 -4.65625 L 2.71875 -4.65625 L 2.71875 0 L 1.640625 0 L 1.640625 -10.09375 L 2.71875 -10.09375 L 2.71875 -5.59375 L 9.03125 -5.59375 L 9.03125 -10.09375 Z M 10.078125 -10.09375 "/></g></g></g><g fill="#8c52ff" fill-opacity="1"><g transform="translate(247.194775, 203.406563)"><g><path d="M 7.96875 -2.703125 L 2.34375 -2.703125 L 1.140625 0 L 0.03125 0 L 4.640625 -10.09375 L 5.703125 -10.09375 L 10.3125 0 L 9.1875 0 Z M 7.59375 -3.5625 L 5.15625 -8.984375 L 2.734375 -3.5625 Z M 7.59375 -3.5625 "/></g></g></g><g fill="#8c52ff" fill-opacity="1"><g transform="translate(265.460597, 203.406563)"><g><path d="M 12.125 -10.09375 L 12.125 0 L 11.109375 0 L 11.109375 -8.078125 L 7.140625 -1.28125 L 6.640625 -1.28125 L 2.671875 -8.03125 L 2.671875 0 L 1.640625 0 L 1.640625 -10.09375 L 2.53125 -10.09375 L 6.90625 -2.609375 L 11.25 -10.09375 Z M 12.125 -10.09375 "/></g></g></g><g fill="#8c52ff" fill-opacity="1"><g transform="translate(287.156946, 203.406563)"><g><path d="M 12.125 -10.09375 L 12.125 0 L 11.109375 0 L 11.109375 -8.078125 L 7.140625 -1.28125 L 6.640625 -1.28125 L 2.671875 -8.03125 L 2.671875 0 L 1.640625 0 L 1.640625 -10.09375 L 2.53125 -10.09375 L 6.90625 -2.609375 L 11.25 -10.09375 Z M 12.125 -10.09375 "/></g></g></g><g fill="#8c52ff" fill-opacity="1"><g transform="translate(308.853295, 203.406563)"><g><path d="M 8.78125 -0.921875 L 8.78125 0 L 1.640625 0 L 1.640625 -10.09375 L 8.5625 -10.09375 L 8.5625 -9.171875 L 2.71875 -9.171875 L 2.71875 -5.578125 L 7.9375 -5.578125 L 7.9375 -4.671875 L 2.71875 -4.671875 L 2.71875 -0.921875 Z M 8.78125 -0.921875 "/></g></g></g><g fill="#8c52ff" fill-opacity="1"><g transform="translate(326.427242, 203.406563)"><g><path d="M 1.640625 -10.09375 L 5.75 -10.09375 C 6.820312 -10.09375 7.765625 -9.878906 8.578125 -9.453125 C 9.398438 -9.023438 10.035156 -8.425781 10.484375 -7.65625 C 10.929688 -6.894531 11.15625 -6.023438 11.15625 -5.046875 C 11.15625 -4.066406 10.929688 -3.191406 10.484375 -2.421875 C 10.035156 -1.660156 9.398438 -1.066406 8.578125 -0.640625 C 7.765625 -0.210938 6.820312 0 5.75 0 L 1.640625 0 Z M 5.703125 -0.921875 C 6.585938 -0.921875 7.359375 -1.09375 8.015625 -1.4375 C 8.679688 -1.789062 9.195312 -2.28125 9.5625 -2.90625 C 9.925781 -3.53125 10.109375 -4.242188 10.109375 -5.046875 C 10.109375 -5.859375 9.925781 -6.570312 9.5625 -7.1875 C 9.195312 -7.8125 8.679688 -8.296875 8.015625 -8.640625 C 7.359375 -8.992188 6.585938 -9.171875 5.703125 -9.171875 L 2.71875 -9.171875 L 2.71875 -0.921875 Z M 5.703125 -0.921875 "/></g></g></g></svg>